<svg width="72" height="73" viewBox="0 0 72 73" fill="none" xmlns="http://www.w3.org/2000/svg">
<path d="M20.2988 18.7169C19.2403 17.8292 18.625 20.6387 19.7811 20.8224C20.422 20.9226 20.8514 19.1794 20.2988 18.7169Z" fill="#8DC454"/>
<path d="M8.02981 31.6319C8.98511 31.5074 8.93525 30.4243 7.96755 30.2971C6.07259 30.0471 5.7128 31.9349 8.02981 31.6319Z" fill="#8DC454"/>
<path d="M31.5962 34.5834C32.426 34.5501 32.4615 33.5186 31.6391 33.2859C29.6314 32.7168 29.2661 34.6778 31.5962 34.5834Z" fill="#8DC454"/>
<path d="M17.2884 43.7847C16.9882 45.9769 18.8458 46.1388 18.5676 44.0155C18.3854 42.6331 17.4672 42.4664 17.2884 43.7847Z" fill="#8DC454"/>
<path d="M11.1752 19.7812C8.9881 20.0822 16.9372 28.4396 16.6481 30.723C16.5298 31.6356 10.7123 29.6372 10.434 30.9479C10.35 31.3472 11.9831 31.7786 15.3333 32.2421C16.3706 32.3844 16.332 32.3557 16.1285 32.821C15.4939 34.2646 6.38896 39.1258 8.93489 39.8076C9.44943 39.9465 15.4996 34.8688 17.1358 34.5353C17.7614 34.409 17.7644 34.4157 17.6441 36.0515C17.3286 40.3834 17.3692 41.0333 17.966 41.1461C18.9589 41.3348 18.512 40.2209 19.0634 35.3754C19.4104 32.3333 27.1307 46.2738 28.6696 45.931C29.7199 45.7002 29.1125 44.93 27.8477 43.3353C26.4654 41.5937 21.5134 35.4901 21.8497 33.323C23.9719 33.573 27.4041 34.5902 28.184 34.0237C28.8662 33.5281 28.4016 32.7712 27.4576 32.8379C27.0084 32.8697 25.7967 32.6289 21.8817 31.8809C22.6196 28.9272 29.0505 25.9357 28.9057 24.8613C28.6944 23.3458 27.0126 25.0268 25.6144 26.0619C18.7685 31.1392 19.4796 30.8764 20.3424 23.8979C20.5259 22.4201 20.4747 22.193 19.9432 22.1091C19.2011 21.9918 19.0519 22.5295 18.6199 26.882C18.4186 28.9049 18.4467 28.8507 17.8365 28.3823C16.185 27.1181 12.0351 19.6622 11.1752 19.7812Z" fill="#8DC454"/>
<path d="M58.1914 28.1426C57.2558 27.8786 57.0056 30.086 57.8219 30.215C58.641 30.3454 58.9941 28.3702 58.1914 28.1426Z" fill="#8DC454"/>
<path d="M44.8531 38.493C44.0651 39.0654 44.9331 39.8522 46.2529 39.7626C46.7975 39.7253 47.0848 39.2116 46.7887 38.804C46.5872 38.5265 45.1309 38.2913 44.8531 38.493Z" fill="#8DC454"/>
<path d="M56.9691 33.1455C56.8817 34.3353 56.9874 34.6274 57.5088 34.6389C57.8674 34.6462 58.0761 34.3811 58.1557 33.816C58.3952 32.0901 58.3049 31.604 57.7276 31.5426C57.2152 31.4874 57.069 31.7993 56.9699 33.1466L56.9691 33.1455Z" fill="#8DC454"/>
<path d="M48.1145 39.6251C48.2242 40.0279 51.1904 40.7433 52.1718 40.6033C52.9879 40.4876 52.8032 39.5735 51.9287 39.3839C48.7107 38.6812 47.8726 38.7348 48.1145 39.6251Z" fill="#8DC454"/>
<path d="M65.0226 43.1353C65.5266 43.069 65.7502 42.5677 65.4542 42.1602C65.1961 41.8049 62.2201 41.3645 61.8543 41.6284C61.3494 41.9917 61.5664 42.5276 62.3006 42.7268C62.8378 42.8723 64.7918 43.1646 65.0226 43.1353Z" fill="#8DC454"/>
<path d="M56.9513 50.2872C57.0151 50.1575 57.2551 47.374 57.245 46.8883C57.2299 46.1294 56.2528 46.0356 56.069 46.7775C55.9838 47.1197 55.7175 49.8549 55.7479 50.0971C55.8236 50.7392 56.6537 50.9042 56.9524 50.2864L56.9513 50.2872Z" fill="#8DC454"/>
<path d="M69.2004 42.5486C68.8116 42.0133 67.359 42.2207 67.244 42.8274C67.021 43.9845 69.9688 43.6064 69.2004 42.5486Z" fill="#8DC454"/>
<path d="M55.5635 52.5762C55.3999 53.4435 55.5577 53.8734 56.064 53.9349C56.5238 53.9911 56.726 53.6633 56.7692 52.8037C56.8318 51.5113 55.8008 51.3165 55.5635 52.5762Z" fill="#8DC454"/>
<path d="M51.2351 31.817C50.4009 32.0398 50.4556 32.2324 52.0004 34.452C56.0587 40.286 56.2719 40.9754 54.4848 42.5165C51.9733 44.6832 51.4363 45.3641 51.9026 45.7934C52.3148 46.1751 52.334 46.1648 54.1769 44.5246C57.1111 41.9108 57.2674 42.0526 62.2748 49.5403C63.0182 50.6516 63.097 50.7186 63.5262 50.6178C65.8612 50.0658 58.3545 43.4979 59.0198 40.8134C59.2538 39.8719 63.3924 37.694 62.6873 36.7233C62.2504 36.1219 62.0468 36.2326 59.283 38.5629C57.7577 39.8483 56.985 39.4127 54.6436 35.9376C52.5827 32.8779 51.6213 31.7156 51.2327 31.8187L51.2351 31.817Z" fill="#8DC454"/>
</svg>
