<svg width="64" height="55" viewBox="0 0 64 55" fill="none" xmlns="http://www.w3.org/2000/svg">
<path d="M5.64289 14.5962C8.03736 15.6799 10.665 10.9934 11.525 4.09989C12.1892 -1.20026 8.48919 -1.42075 6.22381 3.7837C5.80322 4.75096 6.00727 4.7052 5.49714 4.03749C2.45929 0.0582177 -1.06163 2.07801 0.302179 7.02037C1.03718 9.68292 3.96468 13.8328 5.64289 14.5941V14.5962Z" fill="#FF9770" fill-opacity="0.5"/>
<path d="M60.4637 20.7991C62.7145 21.4481 64.0346 12.4287 63.9992 11.4635C63.8972 8.71149 61.5756 7.46966 59.1332 11.0787C57.1052 8.56172 55.2521 10.1572 55.25 12.5306C55.25 15.3055 58.317 20.1709 60.4637 20.797V20.7991Z" fill="#FF9770" fill-opacity="0.5"/>
<path d="M28.4298 22.4362C29.2627 21.6062 31.4073 15.2036 31.7196 12.6305C32.2006 8.63041 29.2585 7.80252 26.5933 12.6034C22.1792 7.88781 20.3115 11.1141 21.6649 15.1245C22.5581 17.7621 26.433 24.4372 28.4298 22.4382V22.4362Z" fill="#FF9770" fill-opacity="0.5"/>
<path d="M40.7438 35.5574C42.1867 36.6994 43.5443 34.5985 45.1143 28.7866C46.2865 24.4433 43.0404 23.0351 40.8229 26.9249C40.3815 27.7008 40.5564 27.628 40.1879 27.2868C36.3192 23.7174 33.5437 29.8475 40.7438 35.5595V35.5574Z" fill="#FF9770" fill-opacity="0.5"/>
<path d="M22.962 47.8532C24.6027 48.4544 27.093 43.7408 28.3506 37.6461C29.3896 32.6163 25.0921 31.7344 22.7122 36.4854C22.1354 37.6336 22.2145 37.5899 21.5857 37.1094C18.1752 34.5134 15.3538 36.294 16.7989 40.1318C17.715 42.5655 21.5149 47.3248 22.962 47.8532Z" fill="#FF9770" fill-opacity="0.5"/>
<path d="M53.7925 54.1829C55.1397 54.7695 55.9121 53.4903 57.0656 48.7746C58.5065 42.8775 55.8226 40.5998 53.0138 45.3341C52.4183 46.3367 52.7473 46.2972 51.8165 45.357C49.1243 42.63 46.6736 44.5873 48.3956 48.0882C49.2826 49.8937 52.6369 53.6837 53.7883 54.1829H53.7925Z" fill="#FF9770" fill-opacity="0.5"/>
</svg>
