<svg width="32" height="27" viewBox="0 0 32 27" fill="none" xmlns="http://www.w3.org/2000/svg">
<path d="M5.65922 3.6001C4.52911 3.6001 3.61377 4.4056 3.61377 5.4001V12.6001C3.61377 13.5946 4.52911 14.4001 5.65922 14.4001H9.79208C9.81758 16.0077 9.63888 19.4524 7.87047 22.0079H7.87247C7.74196 22.185 7.68629 22.3968 7.7152 22.6063C7.7441 22.8159 7.85574 23.0098 8.0306 23.1542C8.20547 23.2987 8.43245 23.3845 8.6719 23.3967C8.91135 23.4088 9.14805 23.3466 9.34064 23.2208C9.34064 23.2208 13.841 20.2001 13.841 14.4001V5.4001C13.841 4.4056 12.9257 3.6001 11.7956 3.6001H5.65922ZM19.9774 3.6001C18.8473 3.6001 17.932 4.4056 17.932 5.4001V12.6001C17.932 13.5946 18.8473 14.4001 19.9774 14.4001H24.1103C24.1358 16.0077 23.9571 19.4524 22.1887 22.0079H22.1907C22.0601 22.185 22.0045 22.3968 22.0334 22.6063C22.0623 22.8159 22.1739 23.0098 22.3488 23.1543C22.5237 23.2987 22.7506 23.3845 22.9901 23.3967C23.2295 23.4088 23.4662 23.3466 23.6588 23.2208C23.6588 23.2208 28.1592 20.2001 28.1592 14.4001V5.4001C28.1592 4.4056 27.2439 3.6001 26.1138 3.6001H19.9774Z" fill="#CCC8C8"/>
</svg>
