<svg width="44" height="49" viewBox="0 0 44 49" fill="none" xmlns="http://www.w3.org/2000/svg">
<path d="M7.17853 36.0941C7.16462 36.924 9.19786 38.1246 9.27081 35.3786C9.49076 27.3459 14.0366 17.8024 9.6801 17.7274C4.85541 17.6438 7.38977 23.1936 7.17662 36.0934L7.17853 36.0941Z" fill="#EFAAA0" fill-opacity="0.5"/>
<path d="M11.7857 41.3332C12.21 41.5914 13.0713 41.2925 13.0779 40.8873C13.0804 40.8053 13.2379 40.6772 13.4301 40.6014C14.5237 40.1612 14.765 38.3116 21.84 30.147C37.2555 12.3542 37.9496 11.4974 38.0693 10.908C38.5667 8.4834 34.314 6.90599 32.7207 8.92609C32.6792 8.97806 9.30503 39.8374 11.785 41.3351L11.7857 41.3332Z" fill="#EFAAA0" fill-opacity="0.5"/>
<path d="M31.2513 36.971C34.9548 35.1949 35.2408 34.882 34.544 33.396C33.6997 31.5949 32.1555 30.8687 30.6908 31.5811C29.3486 32.2349 18.2804 40.4725 16.4385 42.1852C15.5221 43.0411 15.6506 44.0489 16.6922 44.1691C18.0155 44.3236 21.6902 41.5533 31.2513 36.971Z" fill="#EFAAA0" fill-opacity="0.5"/>
</svg>
