<svg width="31" height="31" viewBox="0 0 31 31" fill="none" xmlns="http://www.w3.org/2000/svg">
<path d="M6.25851 3.75537C4.87789 3.75537 3.75513 4.87814 3.75513 6.25875V11.2655C3.75513 12.6461 4.87789 13.7689 6.25851 13.7689H11.2653C12.6459 13.7689 13.7687 12.6461 13.7687 11.2655V6.25875C13.7687 4.87814 12.6459 3.75537 11.2653 3.75537H6.25851ZM18.7754 3.75537C17.3948 3.75537 16.272 4.87814 16.272 6.25875V11.2655C16.272 12.6461 17.3948 13.7689 18.7754 13.7689H23.7822C25.1628 13.7689 26.2856 12.6461 26.2856 11.2655V6.25875C26.2856 4.87814 25.1628 3.75537 23.7822 3.75537H18.7754ZM7.5102 7.51044H10.0136V10.0138H7.5102V7.51044ZM21.2788 7.51044C21.9697 7.51044 22.5305 8.0712 22.5305 8.76213C22.5305 9.45307 21.9697 10.0138 21.2788 10.0138C20.5879 10.0138 20.0271 9.45307 20.0271 8.76213C20.0271 8.0712 20.5879 7.51044 21.2788 7.51044ZM6.25851 16.2723C4.87789 16.2723 3.75513 17.395 3.75513 18.7757V23.7824C3.75513 25.163 4.87789 26.2858 6.25851 26.2858H11.2653C12.6459 26.2858 13.7687 25.163 13.7687 23.7824V18.7757C13.7687 17.395 12.6459 16.2723 11.2653 16.2723H6.25851ZM18.7754 16.2723C17.3948 16.2723 16.272 17.395 16.272 18.7757V23.7824C16.272 25.163 17.3948 26.2858 18.7754 26.2858H23.7822C25.1628 26.2858 26.2856 25.163 26.2856 23.7824V18.7757C26.2856 17.395 25.1628 16.2723 23.7822 16.2723H18.7754ZM8.76189 20.0273C9.45282 20.0273 10.0136 20.5881 10.0136 21.279C10.0136 21.97 9.45282 22.5307 8.76189 22.5307C8.07096 22.5307 7.5102 21.97 7.5102 21.279C7.5102 20.5881 8.07096 20.0273 8.76189 20.0273ZM20.0271 20.0273H22.5305V22.5307H20.0271V20.0273Z" fill="#0F83B2"/>
</svg>
