<svg width="21" height="21" viewBox="0 0 21 21" fill="none" xmlns="http://www.w3.org/2000/svg">
<g clip-path="url(#clip0_2349_1546)">
<path d="M20.207 3.79285C20.2999 3.88564 20.3736 3.99584 20.424 4.11716C20.4743 4.23847 20.5002 4.36852 20.5002 4.49985C20.5002 4.63118 20.4743 4.76123 20.424 4.88254C20.3736 5.00386 20.2999 5.11406 20.207 5.20685L17.207 8.20685C17.1143 8.30003 17.0041 8.37398 16.8828 8.42444C16.7615 8.47491 16.6314 8.50088 16.5 8.50088C16.3685 8.50088 16.2384 8.47491 16.1171 8.42444C15.9958 8.37398 15.8856 8.30003 15.793 8.20685C15.7 8.11406 15.6263 8.00386 15.576 7.88254C15.5257 7.76123 15.4998 7.63118 15.4998 7.49985C15.4998 7.36852 15.5257 7.23847 15.576 7.11716C15.6263 6.99584 15.7 6.88564 15.793 6.79285L17.086 5.49985H7.49996C5.29396 5.49985 3.49996 7.29385 3.49996 9.49985C3.49996 9.76507 3.3946 10.0194 3.20706 10.207C3.01953 10.3945 2.76517 10.4998 2.49996 10.4998C2.23474 10.4998 1.98039 10.3945 1.79285 10.207C1.60531 10.0194 1.49996 9.76507 1.49996 9.49985C1.49996 6.19085 4.19096 3.49985 7.49996 3.49985H17.086L15.793 2.20685C15.7001 2.114 15.6265 2.00378 15.5762 1.88247C15.526 1.76117 15.5001 1.63115 15.5001 1.49985C15.5001 1.36855 15.526 1.23853 15.5762 1.11722C15.6265 0.995916 15.7001 0.885694 15.793 0.792849C15.8858 0.700004 15.996 0.626356 16.1173 0.576109C16.2386 0.525862 16.3687 0.5 16.5 0.5C16.6313 0.5 16.7613 0.525862 16.8826 0.576109C17.0039 0.626356 17.1141 0.700004 17.207 0.792849L20.207 3.79285ZM17.5 10.4998C17.7652 10.4998 18.0195 10.6052 18.2071 10.7927C18.3946 10.9803 18.5 11.2346 18.5 11.4998C18.5 14.8098 15.81 17.4998 12.5 17.4998H3.91396L5.20696 18.7928C5.39446 18.9804 5.49981 19.2347 5.49981 19.4998C5.49981 19.765 5.39446 20.0193 5.20696 20.2069C5.01945 20.3944 4.76513 20.4997 4.49996 20.4997C4.23478 20.4997 3.98047 20.3944 3.79296 20.2069L0.792957 17.2069C0.700011 17.1141 0.626274 17.0039 0.575963 16.8825C0.525652 16.7612 0.499756 16.6312 0.499756 16.4998C0.499756 16.3685 0.525652 16.2385 0.575963 16.1172C0.626274 15.9958 0.700011 15.8856 0.792957 15.7928L3.79296 12.7928C3.8858 12.7 3.99602 12.6264 4.11733 12.5761C4.23864 12.5259 4.36865 12.5 4.49996 12.5C4.63126 12.5 4.76128 12.5259 4.88258 12.5761C5.00389 12.6264 5.11411 12.7 5.20696 12.7928C5.2998 12.8857 5.37345 12.9959 5.4237 13.1172C5.47394 13.2385 5.49981 13.3685 5.49981 13.4998C5.49981 13.6312 5.47394 13.7612 5.4237 13.8825C5.37345 14.0038 5.2998 14.114 5.20696 14.2068L3.91396 15.4998H12.5C14.706 15.4998 16.5 13.7058 16.5 11.4998C16.5 11.2346 16.6053 10.9803 16.7928 10.7927C16.9804 10.6052 17.2347 10.4998 17.5 10.4998Z" fill="#7F7F7F"/>
</g>
<defs>
<clipPath id="clip0_2349_1546">
<rect width="20" height="20" fill="white" transform="translate(0.5 0.5)"/>
</clipPath>
</defs>
</svg>
