<svg width="23" height="23" viewBox="0 0 23 23" fill="none" xmlns="http://www.w3.org/2000/svg">
<path d="M1.06336 0.00537109C0.510617 0.00537109 0.0620117 0.453977 0.0620117 1.00672V5.01213C0.0620117 5.56488 0.510617 6.01348 1.06336 6.01348H6.07012C6.62287 6.01348 7.07148 5.56488 7.07148 5.01213V1.00672C7.07148 0.453977 6.62287 0.00537109 6.07012 0.00537109H1.06336ZM11.0769 2.00808C10.9442 2.0062 10.8125 2.03071 10.6893 2.08019C10.5662 2.12967 10.4541 2.20313 10.3596 2.2963C10.2651 2.38948 10.1901 2.5005 10.1389 2.62292C10.0876 2.74534 10.0613 2.87672 10.0613 3.00943C10.0613 3.14213 10.0876 3.27351 10.1389 3.39594C10.1901 3.51836 10.2651 3.62938 10.3596 3.72255C10.4541 3.81572 10.5662 3.88918 10.6893 3.93866C10.8125 3.98814 10.9442 4.01266 11.0769 4.01078H21.0904C21.2231 4.01266 21.3548 3.98814 21.478 3.93866C21.6011 3.88918 21.7132 3.81572 21.8077 3.72255C21.9022 3.62938 21.9772 3.51836 22.0284 3.39594C22.0796 3.27351 22.106 3.14213 22.106 3.00943C22.106 2.87672 22.0796 2.74534 22.0284 2.62292C21.9772 2.5005 21.9022 2.38948 21.8077 2.2963C21.7132 2.20313 21.6011 2.12967 21.478 2.08019C21.3548 2.03071 21.2231 2.0062 21.0904 2.00808H11.0769ZM1.06336 8.01619C0.510617 8.01619 0.0620117 8.4648 0.0620117 9.01754V13.023C0.0620117 13.5757 0.510617 14.0243 1.06336 14.0243H6.07012C6.62287 14.0243 7.07148 13.5757 7.07148 13.023V9.01754C7.07148 8.4648 6.62287 8.01619 6.07012 8.01619H1.06336ZM11.0769 10.0189C10.9442 10.017 10.8125 10.0415 10.6893 10.091C10.5662 10.1405 10.4541 10.214 10.3596 10.3071C10.2651 10.4003 10.1901 10.5113 10.1389 10.6337C10.0876 10.7562 10.0613 10.8875 10.0613 11.0202C10.0613 11.153 10.0876 11.2843 10.1389 11.4068C10.1901 11.5292 10.2651 11.6402 10.3596 11.7334C10.4541 11.8265 10.5662 11.9 10.6893 11.9495C10.8125 11.999 10.9442 12.0235 11.0769 12.0216H21.0904C21.2231 12.0235 21.3548 11.999 21.478 11.9495C21.6011 11.9 21.7132 11.8265 21.8077 11.7334C21.9022 11.6402 21.9772 11.5292 22.0284 11.4068C22.0796 11.2843 22.106 11.153 22.106 11.0202C22.106 10.8875 22.0796 10.7562 22.0284 10.6337C21.9772 10.5113 21.9022 10.4003 21.8077 10.3071C21.7132 10.214 21.6011 10.1405 21.478 10.091C21.3548 10.0415 21.2231 10.017 21.0904 10.0189H11.0769ZM1.06336 16.027C0.510617 16.027 0.0620117 16.4756 0.0620117 17.0284V21.0338C0.0620117 21.5865 0.510617 22.0351 1.06336 22.0351H6.07012C6.62287 22.0351 7.07148 21.5865 7.07148 21.0338V17.0284C7.07148 16.4756 6.62287 16.027 6.07012 16.027H1.06336ZM11.0769 18.0297C10.9442 18.0278 10.8125 18.0524 10.6893 18.1018C10.5662 18.1513 10.4541 18.2248 10.3596 18.3179C10.2651 18.4111 10.1901 18.5221 10.1389 18.6446C10.0876 18.767 10.0613 18.8984 10.0613 19.0311C10.0613 19.1638 10.0876 19.2952 10.1389 19.4176C10.1901 19.54 10.2651 19.651 10.3596 19.7442C10.4541 19.8374 10.5662 19.9108 10.6893 19.9603C10.8125 20.0098 10.9442 20.0343 11.0769 20.0324H21.0904C21.2231 20.0343 21.3548 20.0098 21.478 19.9603C21.6011 19.9108 21.7132 19.8374 21.8077 19.7442C21.9022 19.651 21.9772 19.54 22.0284 19.4176C22.0796 19.2952 22.106 19.1638 22.106 19.0311C22.106 18.8984 22.0796 18.767 22.0284 18.6446C21.9772 18.5221 21.9022 18.4111 21.8077 18.3179C21.7132 18.2248 21.6011 18.1513 21.478 18.1018C21.3548 18.0524 21.2231 18.0278 21.0904 18.0297H11.0769Z" fill="#A4AAAC"/>
</svg>
